<svg width="46" height="28" viewBox="0 0 46 28" fill="none" xmlns="http://www.w3.org/2000/svg">
<path d="M19.2379 15.9321C18.7178 15.9322 18.2961 15.5045 18.296 14.9769C18.2958 14.4493 18.7174 14.0215 19.2376 14.0214C19.7577 14.0212 20.1793 14.4489 20.1795 14.9765C20.179 15.5038 19.7577 15.9312 19.2379 15.9321ZM8.82927 15.9321C8.30911 15.9322 7.88747 15.5045 7.88729 14.9769C7.88712 14.4493 8.30876 14.0215 8.82886 14.0214C9.34901 14.0212 9.7707 14.4489 9.77086 14.9765C9.77029 15.5038 9.34917 15.9313 8.82927 15.9321ZM19.5756 10.1778L21.4576 6.87124C21.5658 6.68132 21.5017 6.4383 21.3145 6.32849C21.1273 6.21868 20.8877 6.28366 20.7795 6.47359L18.8738 9.82189C17.4165 9.14724 15.7797 8.7715 14.0334 8.7715C12.287 8.7715 10.6505 9.14772 9.1932 9.82189L7.28766 6.47359C7.17958 6.28366 6.94002 6.2185 6.7528 6.32813C6.56558 6.43776 6.50133 6.68078 6.60941 6.8707L8.49157 10.1778C5.25983 11.9609 3.0494 15.2797 2.72607 19.2009H25.341C25.0174 15.2797 22.8071 11.9609 19.5756 10.1778Z" fill="#212121"/>
<path d="M44.5109 8.51422L40.2624 7.45792C40.1052 7.42192 39.9417 7.42224 39.7846 7.45885C39.6274 7.49547 39.4807 7.56742 39.3555 7.66923C39.2303 7.77106 39.1299 7.90007 39.062 8.04648C38.9941 8.19289 38.9604 8.35286 38.9636 8.51422V9.79514L36.2932 9.12736C36.1371 9.08882 35.9744 9.08615 35.8172 9.1196C35.6599 9.15305 35.5124 9.22171 35.3856 9.32052C35.2588 9.41932 35.156 9.54559 35.0851 9.6898C35.0142 9.83408 34.9769 9.99259 34.9761 10.1534V11.4342L32.3057 10.7664C32.1504 10.7278 31.9885 10.725 31.8319 10.7581C31.6755 10.7912 31.5286 10.8595 31.4023 10.9578C31.2761 11.0559 31.1738 11.1815 31.1032 11.3251C31.0326 11.4686 30.9954 11.6263 30.9946 11.7863V18.9073C30.9956 19.201 31.0946 19.4861 31.2761 19.7171C31.4575 19.9481 31.711 20.1118 31.9961 20.1821L36.2446 21.2445C36.4006 21.2831 36.5633 21.2858 36.7206 21.2523C36.8778 21.2189 37.0253 21.1502 37.1521 21.0514C37.2789 20.9526 37.3817 20.8263 37.4526 20.682C37.5235 20.5378 37.5608 20.3793 37.5616 20.2186V13.1158C37.5678 13.0451 37.5678 12.974 37.5616 12.9034C37.5553 12.8476 37.543 12.7927 37.5252 12.7394C37.5279 12.7275 37.5279 12.715 37.5252 12.703C37.5153 12.6603 37.499 12.6193 37.4767 12.5816C37.3911 12.3755 37.253 12.1955 37.076 12.0595C37.065 12.0481 37.0588 12.0329 37.0588 12.017C37.0588 12.0011 37.065 11.9858 37.076 11.9745C37.0827 11.9602 37.0946 11.949 37.1094 11.9434C37.1241 11.9377 37.1404 11.938 37.155 11.9442C37.4675 12.0485 37.7427 12.242 37.9466 12.5009C38.1503 12.7599 38.274 13.0728 38.3021 13.4012L38.4842 18.8648C38.4873 18.9565 38.5195 19.0448 38.5763 19.1169C38.6331 19.1889 38.7113 19.2409 38.7997 19.2655L40.2624 19.6297C40.4185 19.6683 40.5812 19.671 40.7384 19.6375C40.8956 19.6041 41.0432 19.5353 41.17 19.4365C41.2968 19.3378 41.3995 19.2115 41.4705 19.0673C41.5414 18.923 41.5787 18.7645 41.5795 18.6038V11.501C41.5811 11.3735 41.5627 11.2465 41.5248 11.1247C41.5275 11.1126 41.5275 11.1002 41.5248 11.0882C41.5124 11.0464 41.4961 11.0057 41.4763 10.9668C41.4226 10.8437 41.351 10.7291 41.2639 10.6268C41.2062 10.5612 41.1433 10.5003 41.0757 10.4447C41.0646 10.4334 41.0584 10.4181 41.0584 10.4022C41.0584 10.3863 41.0646 10.3711 41.0757 10.3597C41.0877 10.3498 41.1027 10.3445 41.1182 10.3445C41.1337 10.3445 41.1488 10.3498 41.1607 10.3597C41.4415 10.474 41.6866 10.6616 41.8703 10.9029C42.0538 11.1442 42.1693 11.4305 42.2046 11.7317L42.3867 17.1953C42.3902 17.2844 42.4213 17.3702 42.4757 17.4409C42.5301 17.5116 42.605 17.5636 42.6901 17.59L44.1528 17.9542C44.3089 17.9928 44.4716 17.9955 44.6288 17.962C44.786 17.9286 44.9335 17.8598 45.0603 17.761C45.1872 17.6623 45.2899 17.536 45.3608 17.3917C45.4318 17.2474 45.469 17.089 45.4698 16.9283V9.79514C45.4718 9.50617 45.3791 9.22454 45.2059 8.99325C45.0327 8.76195 44.7886 8.59374 44.5109 8.51422Z" fill="#212121"/>
</svg>
