<svg width="60" height="30" viewBox="0 0 60 30" fill="none" xmlns="http://www.w3.org/2000/svg">
<path d="M59.6034 14.0435L45.9674 0.474325C45.4776 -0.0948453 44.6167 -0.161196 44.0447 0.326348C43.4727 0.813775 43.4061 1.67039 43.896 2.23956C43.9417 2.29261 43.9914 2.34217 44.0447 2.38753L55.349 13.6499H1.36357C0.610536 13.6499 0 14.2574 0 15.0069C0 15.7563 0.610536 16.3637 1.36357 16.3637H55.349L44.0447 27.6125C43.4727 28.0999 43.4061 28.9565 43.896 29.5257C44.386 30.0948 45.2467 30.1612 45.8187 29.6737C45.872 29.6282 45.9218 29.5787 45.9674 29.5257L59.6035 15.9565C60.1322 15.4275 60.1322 14.5727 59.6034 14.0435Z" fill="url(#paint0_linear_4528_11121)"/>
<defs>
<linearGradient id="paint0_linear_4528_11121" x1="0" y1="15" x2="60" y2="15" gradientUnits="userSpaceOnUse">
<stop stop-color="#BD7E3A"/>
<stop offset="0.5625" stop-color="#FAE08A"/>
<stop offset="1" stop-color="#AE6E31"/>
</linearGradient>
</defs>
</svg>
