<svg width="60" height="30" viewBox="0 0 60 30" fill="none" xmlns="http://www.w3.org/2000/svg">
<path d="M0.396568 14.0435L14.0326 0.474325C14.5224 -0.0948453 15.3833 -0.161196 15.9553 0.326348C16.5273 0.813775 16.5939 1.67039 16.104 2.23956C16.0583 2.29261 16.0086 2.34217 15.9553 2.38753L4.65098 13.6499H58.6364C59.3895 13.6499 60 14.2574 60 15.0069C60 15.7563 59.3895 16.3637 58.6364 16.3637H4.65098L15.9553 27.6125C16.5273 28.0999 16.5939 28.9565 16.104 29.5257C15.614 30.0948 14.7533 30.1612 14.1813 29.6737C14.128 29.6282 14.0782 29.5787 14.0326 29.5257L0.39645 15.9565C-0.132175 15.4275 -0.132172 14.5727 0.396568 14.0435Z" fill="url(#paint0_linear_4528_11122)"/>
<defs>
<linearGradient id="paint0_linear_4528_11122" x1="60" y1="15" x2="0" y2="15" gradientUnits="userSpaceOnUse">
<stop stop-color="#BD7E3A"/>
<stop offset="0.5625" stop-color="#FAE08A"/>
<stop offset="1" stop-color="#AE6E31"/>
</linearGradient>
</defs>
</svg>
