
<svg preserveAspectRatio="none" viewBox="0 0 1440 310" fill="none" xmlns="http://www.w3.org/2000/svg">
<path d="M0 193.5L720 252L1440 197V310H0V193.5Z" fill="url(#paint0_linear_0_1)"/>
<path d="M1440 217V107.5C1440 107.5 1339.5 289.5 720 291C145.5 291 0 102.5 0 102.5V217C0 217 142 312 720 310C1333 310 1440 217 1440 217Z" fill="url(#paint1_linear_0_1)"/>
<path d="M1440 141V64.2358C1440 64.2358 1339.5 260.5 720 262C145.5 262 0 64.1572 0 64.1572V140.5C0 140.5 142 293 720 291C1333 291 1440 141 1440 141Z" fill="url(#paint2_linear_0_1)"/>
<path d="M1440 65.2715V0C1440 0 1339.5 238.5 720 240C145.5 240 0 0 0 0V65C0 65 142 264 720 262C1342 262 1440 65.2715 1440 65.2715Z" fill="url(#paint3_linear_0_1)"/>
<defs>
<linearGradient id="paint0_linear_0_1" x1="0" y1="251.75" x2="1440" y2="251.75" gradientUnits="userSpaceOnUse">
<stop stop-color="#20242D"/>
<stop offset="0.5" stop-color="#333A3F"/>
<stop offset="1" stop-color="#1F232C"/>
</linearGradient>
<linearGradient id="paint1_linear_0_1" x1="0" y1="206.266" x2="1440" y2="206.266" gradientUnits="userSpaceOnUse">
<stop stop-color="#272B34"/>
<stop offset="0.5" stop-color="#353C42"/>
<stop offset="1" stop-color="#282C35"/>
</linearGradient>
<linearGradient id="paint2_linear_0_1" x1="0" y1="177.588" x2="1440" y2="177.588" gradientUnits="userSpaceOnUse">
<stop stop-color="#1B202A"/>
<stop offset="0.5" stop-color="#474D53"/>
<stop offset="1" stop-color="#1B202A"/>
</linearGradient>
<linearGradient id="paint3_linear_0_1" x1="0" y1="131.007" x2="1440" y2="131.007" gradientUnits="userSpaceOnUse">
<stop stop-color="#32383E"/>
<stop offset="0.5" stop-color="#1D2026"/>
<stop offset="1" stop-color="#32393F"/>
</linearGradient>
</defs>
</svg>

