<svg preserveAspectRatio="none" viewBox="0 0 1440 350" fill="none" xmlns="http://www.w3.org/2000/svg">
<g clip-path="url(#clip0_5639_2697)">
<path d="M0 109.5L720 51L1440 106V-7H0V109.5Z" fill="#1E222B"/>
<path d="M1440 259.5V330.5C1440 330.5 1394.5 60 720 60C45.5 60 0 330.5 0 330.5V259.5C0 259.5 15 39.5 720 39.5C1425 39.5 1440 259.5 1440 259.5Z" fill="url(#paint0_linear_5639_2697)"/>
<path d="M0 190V259.5C0 259.5 26.5 39.5 720 39.5C1413.5 39.5 1440 259.5 1440 259.5V190C1440 190 1399 21 720 21C41 21 0 190 0 190Z" fill="url(#paint1_linear_5639_2697)"/>
<path d="M720 22C43.5 22 0 191 0 191V106C0 106 52.5 0 720 0C1387.5 0 1440 106 1440 106V191C1440 191 1396.5 22 720 22Z" fill="url(#paint2_linear_5639_2697)"/>
</g>
<defs>
<linearGradient id="paint0_linear_5639_2697" x1="0" y1="185" x2="1440" y2="185" gradientUnits="userSpaceOnUse">
<stop stop-color="#353C42"/>
<stop offset="0.5" stop-color="#2F353B"/>
<stop offset="1" stop-color="#353C42"/>
</linearGradient>
<linearGradient id="paint1_linear_5639_2697" x1="0" y1="140.25" x2="1440" y2="140.25" gradientUnits="userSpaceOnUse">
<stop stop-color="#171C27"/>
<stop offset="0.5" stop-color="#30363E"/>
<stop offset="1" stop-color="#171C26"/>
</linearGradient>
<linearGradient id="paint2_linear_5639_2697" x1="0" y1="95.5" x2="1440" y2="95.5" gradientUnits="userSpaceOnUse">
<stop stop-color="#262A33"/>
<stop offset="0.5" stop-color="#2B3038"/>
<stop offset="1" stop-color="#262A33"/>
</linearGradient>
<clipPath id="clip0_5639_2697">
<rect width="1440" height="350" fill="white"/>
</clipPath>
</defs>
</svg>
