<svg viewBox="0 0 100 100" fill="none" xmlns="http://www.w3.org/2000/svg">
<path d="M6.75503 66.218L8.00408 65.7961L6.61824 61.6928L5.36919 62.1146L5.08015 61.2588L7.2174 60.537L9.18133 66.352L7.04408 67.0738L6.75503 66.218ZM11.0545 61.3232L9.67555 61.6961C9.00202 61.8789 8.5202 61.9936 8.2301 62.04C7.94103 62.0895 7.69094 62.1018 7.47982 62.0769L7.15952 61.1286C7.36464 61.1968 7.61794 61.2143 7.91943 61.1812C8.22195 61.1512 8.74544 61.0328 9.48991 60.826L11.6693 60.2136L13.0067 64.1736L8.02439 65.8563L7.71347 64.9357L11.8076 63.553L11.0545 61.3232ZM11.2011 67.143L11.3384 67.0685C12.0335 66.691 12.7233 66.6071 13.4077 66.817C14.0966 67.0282 14.6445 67.5085 15.0515 68.258C15.4616 69.0132 15.5669 69.7357 15.3675 70.4257C15.1724 71.1169 14.7273 71.6512 14.0322 72.0287L13.8949 72.1033C13.1969 72.4824 12.5035 72.5663 11.8146 72.3551C11.1302 72.1452 10.5829 71.6627 10.1728 70.9075C9.76575 70.158 9.65977 69.4377 9.85485 68.7465C10.0543 68.0566 10.5031 67.5221 11.2011 67.143ZM11.8114 67.9395L11.6741 68.0141C11.2565 68.2409 10.9791 68.5656 10.8419 68.9883C10.7063 69.4139 10.7822 69.8913 11.0696 70.4205C11.3601 70.9554 11.7199 71.2804 12.1492 71.3955C12.5784 71.5106 13.0018 71.4548 13.4195 71.228L13.5568 71.1534C13.9716 70.9281 14.2475 70.6042 14.3847 70.1815C14.5219 69.7588 14.4452 69.28 14.1547 68.745C13.8673 68.2158 13.5082 67.8922 13.0774 67.7743C12.6482 67.6592 12.2262 67.7143 11.8114 67.9395ZM14.7539 73.5931L14.877 73.4969C15.5004 73.01 16.161 72.8059 16.8586 72.8847C17.5588 72.9615 18.1734 73.3385 18.7024 74.0158C19.1953 74.6468 19.4138 75.2465 19.3579 75.8148C19.302 76.383 19.0829 76.8165 18.7007 77.115L18.6814 77.13L18.0773 76.3566L18.1081 76.3325C18.2919 76.1766 18.3862 75.9562 18.3911 75.6716C18.3979 75.3895 18.24 75.0419 17.9174 74.6289C17.5447 74.1518 17.1409 73.8992 16.706 73.8713C16.2732 73.8459 15.8669 73.9815 15.4872 74.278L15.3641 74.3742C14.9818 74.6728 14.7506 75.0351 14.6704 75.4613C14.5922 75.89 14.7394 76.3429 15.1121 76.8201C15.4348 77.2331 15.7335 77.4727 16.0082 77.539C16.285 77.6078 16.5229 77.5686 16.7219 77.4214L16.7488 77.4004L17.35 78.17L17.3307 78.185C16.9485 78.4836 16.4749 78.5912 15.91 78.5079C15.3477 78.4225 14.8201 78.0643 14.3271 77.4332C13.7981 76.756 13.5799 76.0693 13.6724 75.3734C13.7674 74.6754 14.128 74.082 14.7539 73.5931ZM19.9502 77.4088L20.5949 76.7281L24.0797 80.0287L23.4351 80.7093L22.0454 79.3931L19.0739 82.5306L18.3684 81.8624L21.3399 78.725L19.9502 77.4088ZM20.5272 86.618L21.1071 85.7961C21.1806 85.8838 21.2592 85.9672 21.343 86.0462C21.4293 86.127 21.5164 86.1984 21.6042 86.2603C21.8303 86.4198 22.0649 86.4797 22.308 86.4401C22.5518 86.405 22.9164 86.2299 23.4015 85.9148L23.3549 86.0911L24.5459 80.5315L25.3559 81.1029L24.546 84.6905C24.5243 84.7947 24.4985 84.902 24.4685 85.0123C24.4411 85.1244 24.4086 85.227 24.3709 85.3199L24.3949 85.3368C24.4698 85.2701 24.5551 85.2029 24.6508 85.1349C24.7465 85.067 24.8449 85.001 24.9459 84.9368L27.9693 82.9465L28.867 83.5798L23.4347 87.0198C22.9921 87.2971 22.5803 87.4489 22.1994 87.4749C21.8212 87.5029 21.4458 87.3855 21.0734 87.1228C20.9644 87.0459 20.8653 86.9661 20.7763 86.8834C20.6854 86.8033 20.6024 86.7149 20.5272 86.618ZM29.8606 84.2103L34.1068 86.2977L31.7868 91.017L30.9148 90.5884L32.8212 86.7103L30.3191 85.4803L28.4127 89.3584L27.5407 88.9297L29.8606 84.2103ZM35.8112 87.0722L36.7419 87.3513L36.1331 89.3811L38.841 90.1933L39.4498 88.1635L40.3805 88.4427L38.8697 93.4798L37.939 93.2006L38.5703 91.096L35.8623 90.2838L35.231 92.3884L34.3003 92.1092L35.8112 87.0722ZM43.048 88.9987L42.8694 90.6934L44.4136 90.8562C45.0611 90.9244 45.5431 91.1339 45.8596 91.4848C46.1761 91.8357 46.3057 92.283 46.2484 92.8269C46.1921 93.361 45.9719 93.7732 45.5879 94.0633C45.2041 94.3502 44.6885 94.4595 44.0411 94.3913L41.5305 94.1267L42.0817 88.8969L43.048 88.9987ZM44.3154 91.7885L42.7712 91.6258L42.5946 93.3011L44.1388 93.4638C44.537 93.5058 44.8173 93.4551 44.9797 93.3118C45.1456 93.1657 45.2416 92.9696 45.2675 92.7235C45.2931 92.4807 45.2395 92.2754 45.1066 92.1076C44.9773 91.9368 44.7135 91.8305 44.3154 91.7885ZM46.8429 94.6865L47.3941 89.4567L48.3555 89.558L47.8044 94.7879L46.8429 94.6865ZM50.0434 92.4113L50.0315 92.2555C49.9716 91.4668 50.1694 90.8037 50.6248 90.2664C51.0799 89.7258 51.7132 89.4247 52.5247 89.3631C53.3394 89.3012 53.9837 89.4889 54.4577 89.9263C54.9314 90.3604 55.1984 90.9751 55.2588 91.7703L55.2984 92.2913L50.6438 92.6448L50.5725 91.7051L54.263 91.4248L54.2644 91.508C54.2381 91.1182 54.0927 90.8159 53.8282 90.6009C53.5636 90.3827 53.1505 90.2949 52.5889 90.3376C52.0306 90.38 51.6179 90.5762 51.3507 90.9262C51.0834 91.2762 50.9683 91.6947 51.0053 92.1815L51.0171 92.3373C51.0551 92.8372 51.2373 93.238 51.5638 93.5396C51.8934 93.8378 52.3778 93.9626 53.0173 93.914C53.4133 93.8839 53.7484 93.8046 54.0226 93.6761C54.2967 93.5443 54.5172 93.3969 54.6844 93.234L55.3476 93.7125C55.1845 93.973 54.9114 94.2239 54.5282 94.4652C54.148 94.703 53.6755 94.8434 53.1107 94.8863C52.1856 94.9566 51.4574 94.7605 50.9261 94.2981C50.3978 93.8322 50.1035 93.2033 50.0434 92.4113ZM59.6679 88.5021L64.1579 87.0099L65.8164 92.0004L64.8943 92.3068L63.5315 88.206L60.8857 89.0853L62.2485 93.1861L61.3264 93.4925L59.6679 88.5021ZM66.9001 88.9026L66.8264 88.7648C66.4533 88.0674 66.3739 87.3771 66.588 86.694C66.8036 86.0065 67.2873 85.4616 68.0394 85.0593C68.7971 84.6539 69.5203 84.5532 70.209 84.757C70.8989 84.9565 71.4305 85.4049 71.8036 86.1024L71.8773 86.2402C72.2519 86.9405 72.3315 87.6345 72.116 88.322C71.9018 89.0051 71.4158 89.5493 70.6581 89.9546C69.906 90.3569 69.185 90.4584 68.4951 90.2589C67.8064 90.0551 67.2748 89.603 66.9001 88.9026ZM67.7005 88.2973L67.7742 88.4351C67.9983 88.8541 68.3213 89.1336 68.7431 89.2734C69.1678 89.4117 69.6457 89.3389 70.1767 89.0548C70.7134 88.7677 71.0407 88.4099 71.1585 87.9814C71.2763 87.5529 71.2231 87.1291 70.999 86.71L70.9253 86.5722C70.7026 86.156 70.3804 85.878 69.9586 85.7382C69.5368 85.5984 69.0575 85.672 68.5207 85.9591C67.9897 86.2432 67.6639 86.6002 67.5432 87.0303C67.4254 87.4588 67.4778 87.8811 67.7005 88.2973ZM71.9423 83.0736L75.6785 80.1705L78.9051 84.323L78.1379 84.9192L75.4864 81.507L73.2848 83.2177L75.9363 86.6299L75.169 87.2261L71.9423 83.0736ZM77.6942 78.3112L78.9675 79.4437L79.9995 78.2836C80.4322 77.7971 80.8833 77.5275 81.3529 77.4746C81.8225 77.4218 82.2616 77.5771 82.6702 77.9406C83.0715 78.2976 83.2782 78.7167 83.2902 79.1978C83.2997 79.6769 83.0882 80.1596 82.6555 80.6461L80.9777 82.5323L77.0484 79.0372L77.6942 78.3112ZM80.6999 78.9066L79.668 80.0668L80.9267 81.1864L81.9586 80.0262C82.2247 79.7271 82.3469 79.4698 82.3251 79.2543C82.303 79.0342 82.1995 78.842 82.0146 78.6776C81.8322 78.5153 81.6341 78.4393 81.4203 78.4495C81.2062 78.4551 80.9661 78.6075 80.6999 78.9066ZM84.5279 78.541L80.5987 75.0459L81.2412 74.3235L85.1705 77.8186L84.5279 78.541ZM82.9018 73.9158L82.1055 73.421L84.6388 69.3441L85.435 69.8389L84.4248 71.4647L88.0953 73.7454L87.5824 74.5707L83.912 72.29L82.9018 73.9158ZM91.6573 66.6871L88.4896 67.9808L88.183 67.1589L92.1629 65.5067L91.6573 66.6871ZM87.4363 68.5548L87.8439 67.6033L86.6964 64.9126L87.2136 63.7053L88.8479 67.6403L88.298 68.924L87.4363 68.5548ZM85.6832 67.278L90.5171 69.3487L90.1364 70.2374L85.3025 68.1667L85.6832 67.278ZM92.8177 63.6819L87.7286 62.3565L87.9735 61.4162L91.13 62.2383C91.2308 62.2645 91.3406 62.2948 91.4595 62.3292C91.5784 62.3635 91.6862 62.3949 91.7831 62.4235L91.7905 62.3952C91.7114 62.3241 91.6332 62.2499 91.5558 62.1726C91.4792 62.0921 91.4011 62.0045 91.3215 61.9097L88.6873 58.6756L88.9519 57.6597L94.0409 58.9851L93.7948 59.9302L90.6384 59.1081C90.5407 59.0826 90.434 59.0532 90.3183 59.0196C90.1994 58.9853 90.0916 58.9539 89.9947 58.9253L89.9886 58.9489C90.0676 59.02 90.1454 59.0957 90.222 59.1762C90.2955 59.2559 90.372 59.3431 90.4516 59.4378L93.0823 62.666L92.8177 63.6819Z" fill="white"/>
</svg>
