<svg width="212" height="50" viewBox="0 0 212 50" fill="none" xmlns="http://www.w3.org/2000/svg">
<g clip-path="url(#clip0_5616_5305)">
<path d="M148.327 14.8838C146.244 14.8838 144.208 15.5023 142.477 16.6612C140.745 17.82 139.395 19.4672 138.598 21.3943C137.801 23.3214 137.593 25.4419 137.999 27.4877C138.405 29.5335 139.408 31.4127 140.881 32.8876C142.354 34.3626 144.23 35.367 146.272 35.774C148.315 36.1809 150.432 35.972 152.356 35.1738C154.28 34.3756 155.925 33.0238 157.082 31.2895C158.239 29.5551 158.856 27.5161 158.856 25.4302C158.854 22.634 157.743 19.953 155.769 17.9758C153.795 15.9986 151.118 14.8866 148.327 14.8838ZM148.327 30.056C147.412 30.056 146.519 29.7844 145.758 29.2756C144.998 28.7668 144.406 28.0436 144.056 27.1975C143.706 26.3514 143.615 25.4204 143.794 24.5223C143.972 23.6242 144.413 22.7994 145.06 22.1521C145.706 21.5048 146.53 21.0642 147.427 20.886C148.324 20.7077 149.253 20.7999 150.098 21.1508C150.942 21.5017 151.664 22.0956 152.171 22.8574C152.679 23.6191 152.949 24.5145 152.949 25.4302C152.948 26.6574 152.46 27.8339 151.594 28.7013C150.727 29.5688 149.552 30.056 148.327 30.056Z" fill="white"/>
<path d="M201.279 14.8838C199.197 14.8831 197.16 15.5011 195.428 16.6595C193.696 17.8179 192.346 19.4648 191.549 21.3919C190.751 23.3189 190.542 25.4395 190.948 27.4856C191.354 29.5316 192.356 31.4111 193.829 32.8864C195.301 34.3617 197.178 35.3665 199.22 35.7737C201.263 36.1809 203.38 35.9723 205.305 35.1741C207.229 34.376 208.874 33.0243 210.031 31.2898C211.188 29.5554 211.805 27.5162 211.805 25.4302C211.803 22.6346 210.693 19.9542 208.72 17.977C206.746 15.9999 204.07 14.8875 201.279 14.8838ZM201.279 30.056C200.365 30.0567 199.471 29.7857 198.71 29.2773C197.95 28.7689 197.357 28.0459 197.006 27.1999C196.656 26.3538 196.564 25.4228 196.742 24.5244C196.921 23.6261 197.361 22.8009 198.008 22.1533C198.654 21.5057 199.478 21.0647 200.375 20.8862C201.272 20.7077 202.201 20.7997 203.046 21.1505C203.891 21.5013 204.613 22.0952 205.12 22.857C205.628 23.6188 205.898 24.5143 205.898 25.4302C205.896 26.6565 205.409 27.832 204.543 28.6991C203.677 29.5662 202.504 30.0542 201.279 30.056Z" fill="white"/>
<path d="M128.029 15.3887C126.54 15.3906 125.091 15.8764 123.9 16.7733C122.71 17.6701 121.842 18.9296 121.427 20.3625L116.93 35.5452H123.088L127.119 21.9915C127.18 21.7705 127.32 21.5794 127.512 21.4537C127.703 21.328 127.934 21.2763 128.161 21.3082C128.388 21.3401 128.595 21.4535 128.745 21.6272C128.895 21.8009 128.976 22.0231 128.975 22.2525V35.5452H134.882V22.2421C134.877 20.4243 134.153 18.6828 132.868 17.3984C131.584 16.114 129.844 15.3914 128.029 15.3887Z" fill="white"/>
<path d="M184.05 15.3887H165.899C164.616 15.3942 163.387 15.9071 162.48 16.8159C161.572 17.7246 161.06 18.9556 161.055 20.2407V35.5556H166.962V21.3058H172.019V35.5452H177.927V21.3058H182.986V35.5452H188.894V20.2303C188.886 18.9469 188.373 17.7187 187.466 16.8122C186.558 15.9057 185.331 15.3941 184.05 15.3887Z" fill="white"/>
<path d="M14.2452 28.4301C13.6315 29.1529 12.8111 29.6696 11.8949 29.9106C10.9786 30.1515 10.0106 30.1051 9.12153 29.7777C8.23245 29.4502 7.46509 28.8573 6.92304 28.0792C6.38099 27.3011 6.09035 26.3751 6.09035 25.4263C6.09035 24.4775 6.38099 23.5516 6.92304 22.7735C7.46509 21.9953 8.23245 21.4025 9.12153 21.075C10.0106 20.7475 10.9786 20.7011 11.8949 20.9421C12.8111 21.1831 13.6315 21.6998 14.2452 22.4225L14.5927 22.8193L19.0722 18.9627L18.7247 18.5694C17.3222 16.9312 15.4519 15.7632 13.366 15.2228C11.2801 14.6825 9.07897 14.7958 7.05937 15.5475C5.03977 16.2992 3.2989 17.6531 2.07153 19.4267C0.844156 21.2003 0.189328 23.3082 0.195354 25.4661C0.20138 27.6241 0.867969 29.7283 2.10523 31.4949C3.34248 33.2616 5.09089 34.6058 7.11466 35.3461C9.13842 36.0865 11.3402 36.1875 13.423 35.6355C15.5059 35.0834 17.3696 33.9049 18.7629 32.2589L19.1104 31.8621L14.5927 28.0334L14.2452 28.4301Z" fill="white"/>
<path d="M50.0996 14.8838C48.0169 14.8831 45.9807 15.5011 44.2487 16.6595C42.5166 17.8179 41.1664 19.4648 40.3689 21.3919C39.5714 23.3189 39.3624 25.4395 39.7683 27.4856C40.1742 29.5316 41.1768 31.4111 42.6493 32.8864C44.1217 34.3617 45.9979 35.3665 48.0406 35.7737C50.0833 36.1809 52.2006 35.9723 54.1249 35.1741C56.0491 34.376 57.6938 33.0243 58.851 31.2898C60.0082 29.5554 60.6258 27.5162 60.6258 25.4302C60.6231 22.6346 59.5133 19.9542 57.5399 17.977C55.5666 15.9999 52.8908 14.8875 50.0996 14.8838ZM50.0996 30.056C49.1852 30.0567 48.2911 29.7857 47.5305 29.2773C46.7699 28.7689 46.1769 28.0459 45.8267 27.1999C45.4764 26.3538 45.3846 25.4228 45.5628 24.5244C45.741 23.6261 46.1813 22.8009 46.8279 22.1533C47.4745 21.5057 48.2984 21.0647 49.1953 20.8862C50.0922 20.7077 51.0218 20.7997 51.8665 21.1505C52.7112 21.5013 53.433 22.0952 53.9406 22.857C54.4482 23.6188 54.7188 24.5143 54.7181 25.4302C54.7162 26.6565 54.229 27.832 53.3633 28.6991C52.4976 29.5662 51.3239 30.0542 50.0996 30.056Z" fill="white"/>
<path d="M32.8595 15.3887H25.6764C24.3933 15.3942 23.1643 15.9071 22.257 16.8159C21.3497 17.7246 20.8375 18.9556 20.832 20.2407V35.5556H26.7398V21.3058H31.7961V35.5452H37.7039V20.2303C37.6957 18.9469 37.1823 17.7187 36.2753 16.8122C35.3683 15.9057 34.1408 15.3941 32.8595 15.3887Z" fill="white"/>
<path d="M109.447 15.3887H91.2897C90.0066 15.3942 88.7776 15.9071 87.8703 16.8159C86.9629 17.7246 86.4508 18.9556 86.4453 20.2407V35.5556H92.3531V21.3058H97.4129V35.5452H103.321V21.3058H108.377V35.5452H114.285V20.2303C114.277 18.9481 113.764 17.7209 112.859 16.8146C111.953 15.9083 110.727 15.396 109.447 15.3887Z" fill="white"/>
<path d="M73.4637 14.8838C70.6722 14.8866 67.9959 15.9987 66.0224 17.976C64.0488 19.9534 62.9393 22.6343 62.9375 25.4302V43.1085H68.8453V34.9011C70.2684 35.5969 71.83 35.9621 73.4137 35.9695C74.9974 35.9769 76.5623 35.6263 77.9919 34.9439C79.4215 34.2614 80.6789 33.2646 81.6705 32.0278C82.662 30.791 83.3622 29.346 83.7188 27.8005C84.0754 26.2551 84.0792 24.6489 83.7299 23.1018C83.3807 21.5546 82.6874 20.1063 81.7017 18.8648C80.716 17.6233 79.4634 16.6205 78.037 15.9313C76.6107 15.242 75.0474 14.8839 73.4637 14.8838ZM73.4637 30.056C72.5493 30.0567 71.6552 29.7857 70.8946 29.2773C70.134 28.7689 69.541 28.0459 69.1908 27.1999C68.8405 26.3538 68.7487 25.4228 68.9269 24.5244C69.1052 23.6261 69.5454 22.8009 70.192 22.1533C70.8386 21.5057 71.6625 21.0647 72.5594 20.8862C73.4563 20.7077 74.3859 20.7997 75.2306 21.1505C76.0753 21.5013 76.7971 22.0952 77.3047 22.857C77.8123 23.6188 78.0829 24.5143 78.0822 25.4302C78.0813 26.6568 77.5944 27.8328 76.7285 28.7001C75.8625 29.5674 74.6883 30.0551 73.4637 30.056Z" fill="white"/>
</g>
<defs>
<clipPath id="clip0_5616_5305">
<rect width="212" height="50" fill="white"/>
</clipPath>
</defs>
</svg>
