<svg width="14" height="25" viewBox="0 0 14 25" fill="none" xmlns="http://www.w3.org/2000/svg">
<path fill-rule="evenodd" clip-rule="evenodd" d="M13.2217 6.84798C13.2217 10.2622 10.4246 13.0395 6.98389 13.0395C3.54375 13.0395 0.746198 10.2622 0.746198 6.84798C0.746198 3.43254 3.54375 0.654297 6.98389 0.654297C10.4246 0.654297 13.2217 3.43254 13.2217 6.84798ZM13.146 16.6052C12.0181 17.3086 10.7933 17.8072 9.52349 18.0946L13.0109 21.557C13.7252 22.2648 13.7252 23.4144 13.0109 24.1228C12.2971 24.8314 11.1407 24.8314 10.4275 24.1228L6.99929 20.7202L3.57396 24.1228C3.39056 24.3048 3.17741 24.4401 2.95015 24.5286C2.73536 24.6121 2.5081 24.654 2.28083 24.654C1.81311 24.654 1.34598 24.4767 0.988865 24.1228C0.274982 23.4144 0.27498 22.2657 0.988279 21.557L4.47568 18.0946C3.20588 17.8072 1.98111 17.3078 0.853181 16.6052C-0.000118563 16.0708 -0.256435 14.9515 0.281281 14.1033C0.817364 13.254 1.9453 12.9982 2.80034 13.5326C5.35418 15.1275 8.64394 15.1278 11.1988 13.5326C12.0539 12.9982 13.1812 13.254 13.7191 14.1033C14.2568 14.9509 13.9993 16.0708 13.146 16.6052ZM9.56677 6.84643C9.56677 5.43234 8.40804 4.28238 6.98389 4.28238C5.56091 4.28238 4.40113 5.43234 4.40113 6.84643C4.40113 8.25919 5.56091 9.40999 6.98389 9.40999C8.40804 9.40999 9.56677 8.25919 9.56677 6.84643Z" fill="#212121"/>
</svg>
