<svg viewBox="0 0 3948 3948" fill="none" xmlns="http://www.w3.org/2000/svg">
<path d="M1973.68 0L1863.09 91.5416L1973.68 1973.68L2084.28 91.5416L1973.68 0Z" fill="url(#paint0_radial_5610_2620)"/>
<path d="M1462.86 67.251L1379.72 184.297L1973.68 1973.68L1593.38 127.051L1462.86 67.251Z" fill="url(#paint1_radial_5610_2620)"/>
<path d="M986.842 264.424L936.83 399.003L1973.68 1973.68L1128.4 288.398L986.842 264.424Z" fill="url(#paint2_radial_5610_2620)"/>
<path d="M578.08 578.079L564.602 721.015L1973.68 1973.68L721.016 564.601L578.08 578.079Z" fill="url(#paint3_radial_5610_2620)"/>
<path d="M264.423 986.841L288.398 1128.39L1973.68 1973.68L399.003 936.828L264.423 986.841Z" fill="url(#paint4_radial_5610_2620)"/>
<path d="M67.2511 1462.86L127.044 1593.38L1973.68 1973.69L184.297 1379.72L67.2511 1462.86Z" fill="url(#paint5_radial_5610_2620)"/>
<path d="M0 1973.69L91.5416 2084.28L1973.68 1973.69L91.5416 1863.09L0 1973.69Z" fill="url(#paint6_radial_5610_2620)"/>
<path d="M67.2511 2484.51L184.297 2567.65L1973.68 1973.68L127.044 2353.99L67.2511 2484.51Z" fill="url(#paint7_radial_5610_2620)"/>
<path d="M264.423 2960.53L399.003 3010.54L1973.68 1973.68L288.398 2818.97L264.423 2960.53Z" fill="url(#paint8_radial_5610_2620)"/>
<path d="M578.08 3369.29L721.016 3382.77L1973.68 1973.68L564.602 3226.35L578.08 3369.29Z" fill="url(#paint9_radial_5610_2620)"/>
<path d="M986.842 3682.94L1128.4 3658.97L1973.68 1973.68L936.83 3548.37L986.842 3682.94Z" fill="url(#paint10_radial_5610_2620)"/>
<path d="M1462.86 3880.12L1593.38 3820.32L1973.68 1973.68L1379.72 3763.07L1462.86 3880.12Z" fill="url(#paint11_radial_5610_2620)"/>
<path d="M1973.68 3947.37L2084.28 3855.83L1973.68 1973.68L1863.09 3855.83L1973.68 3947.37Z" fill="url(#paint12_radial_5610_2620)"/>
<path d="M2484.51 3880.12L2567.65 3763.07L1973.68 1973.68L2353.99 3820.32L2484.51 3880.12Z" fill="url(#paint13_radial_5610_2620)"/>
<path d="M2960.53 3682.94L3010.54 3548.37L1973.68 1973.68L2818.97 3658.97L2960.53 3682.94Z" fill="url(#paint14_radial_5610_2620)"/>
<path d="M3369.29 3369.29L3382.77 3226.35L1973.68 1973.68L3226.35 3382.77L3369.29 3369.29Z" fill="url(#paint15_radial_5610_2620)"/>
<path d="M3682.95 2960.53L3658.97 2818.97L1973.68 1973.68L3548.37 3010.54L3682.95 2960.53Z" fill="url(#paint16_radial_5610_2620)"/>
<path d="M3880.12 2484.51L3820.32 2353.99L1973.68 1973.68L3763.07 2567.65L3880.12 2484.51Z" fill="url(#paint17_radial_5610_2620)"/>
<path d="M3947.37 1973.69L3855.83 1863.09L1973.68 1973.69L3855.83 2084.28L3947.37 1973.69Z" fill="url(#paint18_radial_5610_2620)"/>
<path d="M3880.12 1462.86L3763.07 1379.72L1973.68 1973.69L3820.32 1593.38L3880.12 1462.86Z" fill="url(#paint19_radial_5610_2620)"/>
<path d="M3682.95 986.841L3548.37 936.828L1973.68 1973.68L3658.97 1128.39L3682.95 986.841Z" fill="url(#paint20_radial_5610_2620)"/>
<path d="M3369.29 578.079L3226.35 564.601L1973.68 1973.68L3382.77 721.015L3369.29 578.079Z" fill="url(#paint21_radial_5610_2620)"/>
<path d="M2960.53 264.424L2818.97 288.398L1973.68 1973.68L3010.54 399.003L2960.53 264.424Z" fill="url(#paint22_radial_5610_2620)"/>
<path d="M2484.51 67.251L2353.99 127.051L1973.68 1973.68L2567.65 184.297L2484.51 67.251Z" fill="url(#paint23_radial_5610_2620)"/>
<defs>
<radialGradient id="paint0_radial_5610_2620" cx="0" cy="0" r="1" gradientUnits="userSpaceOnUse" gradientTransform="translate(1973.68 1973.68) rotate(90) scale(1974 1974)">
<stop stop-color="#1E222B"/>
<stop offset="0.499873" stop-color="#353C42"/>
<stop offset="1" stop-color="#262A33"/>
</radialGradient>
<radialGradient id="paint1_radial_5610_2620" cx="0" cy="0" r="1" gradientUnits="userSpaceOnUse" gradientTransform="translate(1973.68 1973.68) rotate(90) scale(1974 1974)">
<stop stop-color="#1E222B"/>
<stop offset="0.499873" stop-color="#353C42"/>
<stop offset="1" stop-color="#262A33"/>
</radialGradient>
<radialGradient id="paint2_radial_5610_2620" cx="0" cy="0" r="1" gradientUnits="userSpaceOnUse" gradientTransform="translate(1973.68 1973.68) rotate(90) scale(1974 1974)">
<stop stop-color="#1E222B"/>
<stop offset="0.499873" stop-color="#353C42"/>
<stop offset="1" stop-color="#262A33"/>
</radialGradient>
<radialGradient id="paint3_radial_5610_2620" cx="0" cy="0" r="1" gradientUnits="userSpaceOnUse" gradientTransform="translate(1973.68 1973.68) rotate(90) scale(1974 1974)">
<stop stop-color="#1E222B"/>
<stop offset="0.499873" stop-color="#353C42"/>
<stop offset="1" stop-color="#262A33"/>
</radialGradient>
<radialGradient id="paint4_radial_5610_2620" cx="0" cy="0" r="1" gradientUnits="userSpaceOnUse" gradientTransform="translate(1973.68 1973.68) rotate(90) scale(1974 1974)">
<stop stop-color="#1E222B"/>
<stop offset="0.499873" stop-color="#353C42"/>
<stop offset="1" stop-color="#262A33"/>
</radialGradient>
<radialGradient id="paint5_radial_5610_2620" cx="0" cy="0" r="1" gradientUnits="userSpaceOnUse" gradientTransform="translate(1973.68 1973.68) rotate(90) scale(1974 1974)">
<stop stop-color="#1E222B"/>
<stop offset="0.499873" stop-color="#353C42"/>
<stop offset="1" stop-color="#262A33"/>
</radialGradient>
<radialGradient id="paint6_radial_5610_2620" cx="0" cy="0" r="1" gradientUnits="userSpaceOnUse" gradientTransform="translate(1973.68 1973.68) rotate(90) scale(1974 1974)">
<stop stop-color="#1E222B"/>
<stop offset="0.499873" stop-color="#353C42"/>
<stop offset="1" stop-color="#262A33"/>
</radialGradient>
<radialGradient id="paint7_radial_5610_2620" cx="0" cy="0" r="1" gradientUnits="userSpaceOnUse" gradientTransform="translate(1973.68 1973.68) rotate(90) scale(1974 1974)">
<stop stop-color="#1E222B"/>
<stop offset="0.499873" stop-color="#353C42"/>
<stop offset="1" stop-color="#262A33"/>
</radialGradient>
<radialGradient id="paint8_radial_5610_2620" cx="0" cy="0" r="1" gradientUnits="userSpaceOnUse" gradientTransform="translate(1973.68 1973.68) rotate(90) scale(1974 1974)">
<stop stop-color="#1E222B"/>
<stop offset="0.499873" stop-color="#353C42"/>
<stop offset="1" stop-color="#262A33"/>
</radialGradient>
<radialGradient id="paint9_radial_5610_2620" cx="0" cy="0" r="1" gradientUnits="userSpaceOnUse" gradientTransform="translate(1973.68 1973.68) rotate(90) scale(1974 1974)">
<stop stop-color="#1E222B"/>
<stop offset="0.499873" stop-color="#353C42"/>
<stop offset="1" stop-color="#262A33"/>
</radialGradient>
<radialGradient id="paint10_radial_5610_2620" cx="0" cy="0" r="1" gradientUnits="userSpaceOnUse" gradientTransform="translate(1973.68 1973.68) rotate(90) scale(1974 1974)">
<stop stop-color="#1E222B"/>
<stop offset="0.499873" stop-color="#353C42"/>
<stop offset="1" stop-color="#262A33"/>
</radialGradient>
<radialGradient id="paint11_radial_5610_2620" cx="0" cy="0" r="1" gradientUnits="userSpaceOnUse" gradientTransform="translate(1973.68 1973.68) rotate(90) scale(1974 1974)">
<stop stop-color="#1E222B"/>
<stop offset="0.499873" stop-color="#353C42"/>
<stop offset="1" stop-color="#262A33"/>
</radialGradient>
<radialGradient id="paint12_radial_5610_2620" cx="0" cy="0" r="1" gradientUnits="userSpaceOnUse" gradientTransform="translate(1973.68 1973.68) rotate(90) scale(1974 1974)">
<stop stop-color="#1E222B"/>
<stop offset="0.499873" stop-color="#353C42"/>
<stop offset="1" stop-color="#262A33"/>
</radialGradient>
<radialGradient id="paint13_radial_5610_2620" cx="0" cy="0" r="1" gradientUnits="userSpaceOnUse" gradientTransform="translate(1973.68 1973.68) rotate(90) scale(1974 1974)">
<stop stop-color="#1E222B"/>
<stop offset="0.499873" stop-color="#353C42"/>
<stop offset="1" stop-color="#262A33"/>
</radialGradient>
<radialGradient id="paint14_radial_5610_2620" cx="0" cy="0" r="1" gradientUnits="userSpaceOnUse" gradientTransform="translate(1973.68 1973.68) rotate(90) scale(1974 1974)">
<stop stop-color="#1E222B"/>
<stop offset="0.499873" stop-color="#353C42"/>
<stop offset="1" stop-color="#262A33"/>
</radialGradient>
<radialGradient id="paint15_radial_5610_2620" cx="0" cy="0" r="1" gradientUnits="userSpaceOnUse" gradientTransform="translate(1973.68 1973.68) rotate(90) scale(1974 1974)">
<stop stop-color="#1E222B"/>
<stop offset="0.499873" stop-color="#353C42"/>
<stop offset="1" stop-color="#262A33"/>
</radialGradient>
<radialGradient id="paint16_radial_5610_2620" cx="0" cy="0" r="1" gradientUnits="userSpaceOnUse" gradientTransform="translate(1973.68 1973.68) rotate(90) scale(1974 1974)">
<stop stop-color="#1E222B"/>
<stop offset="0.499873" stop-color="#353C42"/>
<stop offset="1" stop-color="#262A33"/>
</radialGradient>
<radialGradient id="paint17_radial_5610_2620" cx="0" cy="0" r="1" gradientUnits="userSpaceOnUse" gradientTransform="translate(1973.68 1973.68) rotate(90) scale(1974 1974)">
<stop stop-color="#1E222B"/>
<stop offset="0.499873" stop-color="#353C42"/>
<stop offset="1" stop-color="#262A33"/>
</radialGradient>
<radialGradient id="paint18_radial_5610_2620" cx="0" cy="0" r="1" gradientUnits="userSpaceOnUse" gradientTransform="translate(1973.68 1973.68) rotate(90) scale(1974 1974)">
<stop stop-color="#1E222B"/>
<stop offset="0.499873" stop-color="#353C42"/>
<stop offset="1" stop-color="#262A33"/>
</radialGradient>
<radialGradient id="paint19_radial_5610_2620" cx="0" cy="0" r="1" gradientUnits="userSpaceOnUse" gradientTransform="translate(1973.68 1973.68) rotate(90) scale(1974 1974)">
<stop stop-color="#1E222B"/>
<stop offset="0.499873" stop-color="#353C42"/>
<stop offset="1" stop-color="#262A33"/>
</radialGradient>
<radialGradient id="paint20_radial_5610_2620" cx="0" cy="0" r="1" gradientUnits="userSpaceOnUse" gradientTransform="translate(1973.68 1973.68) rotate(90) scale(1974 1974)">
<stop stop-color="#1E222B"/>
<stop offset="0.499873" stop-color="#353C42"/>
<stop offset="1" stop-color="#262A33"/>
</radialGradient>
<radialGradient id="paint21_radial_5610_2620" cx="0" cy="0" r="1" gradientUnits="userSpaceOnUse" gradientTransform="translate(1973.68 1973.68) rotate(90) scale(1974 1974)">
<stop stop-color="#1E222B"/>
<stop offset="0.499873" stop-color="#353C42"/>
<stop offset="1" stop-color="#262A33"/>
</radialGradient>
<radialGradient id="paint22_radial_5610_2620" cx="0" cy="0" r="1" gradientUnits="userSpaceOnUse" gradientTransform="translate(1973.68 1973.68) rotate(90) scale(1974 1974)">
<stop stop-color="#1E222B"/>
<stop offset="0.499873" stop-color="#353C42"/>
<stop offset="1" stop-color="#262A33"/>
</radialGradient>
<radialGradient id="paint23_radial_5610_2620" cx="0" cy="0" r="1" gradientUnits="userSpaceOnUse" gradientTransform="translate(1973.68 1973.68) rotate(90) scale(1974 1974)">
<stop stop-color="#1E222B"/>
<stop offset="0.499873" stop-color="#353C42"/>
<stop offset="1" stop-color="#262A33"/>
</radialGradient>
</defs>
</svg>
