<svg width="22" height="22" viewBox="0 0 22 22" fill="none" xmlns="http://www.w3.org/2000/svg">
<path d="M18.293 18.293C18.6835 17.9025 19.3165 17.9025 19.707 18.293L21.707 20.293C22.0975 20.6835 22.0976 21.3165 21.707 21.707C21.3165 22.0975 20.6835 22.0975 20.293 21.707L18.293 19.707C17.9025 19.3165 17.9025 18.6835 18.293 18.293ZM19 10.5C19 5.80558 15.1944 2 10.5 2C5.80558 2 2 5.80558 2 10.5C2 15.1944 5.80558 19 10.5 19C15.1944 19 19 15.1944 19 10.5ZM21 10.5C21 16.299 16.299 21 10.5 21C4.70101 21 0 16.299 0 10.5C0 4.70101 4.70101 0 10.5 0C16.299 0 21 4.70101 21 10.5Z" fill="#C2C5CC"/>
</svg>
