<svg width="22" height="19" viewBox="0 0 22 19" fill="none" xmlns="http://www.w3.org/2000/svg">
<path d="M19.6365 16.5936C20.3023 13.0566 21.6182 5.38555 21.9278 2.23138L21.9433 2.20076C21.9743 1.92515 21.9433 1.57299 21.9123 1.41987C21.8814 1.26676 21.8194 1.0524 21.6182 0.88397C21.3705 0.700232 20.9989 0.654297 20.8286 0.654297C20.07 0.669608 18.8934 1.06771 13.2891 3.37975C11.323 4.19125 7.39065 5.86021 1.50766 8.40192C0.547808 8.76939 0.0523966 9.15218 0.00595198 9.50435C-0.0869373 10.1934 0.919363 10.4077 2.18885 10.8211C3.22611 11.158 4.60397 11.5408 5.33161 11.5561C5.99731 11.5714 6.72494 11.3111 7.52998 10.7599C13.0259 7.08513 15.859 5.23244 16.0448 5.1865C16.1687 5.17119 16.339 5.12526 16.4628 5.23244C16.5867 5.33962 16.5557 5.53867 16.5557 5.5846C16.4474 5.99801 11.2765 10.6527 10.9824 10.9589C9.85221 12.1226 8.55176 12.8423 10.5489 14.1437C12.2673 15.2768 13.2736 15.9964 15.054 17.1448C16.1996 17.8797 17.0821 18.7525 18.2587 18.6453C18.8005 18.5994 19.3579 18.0941 19.6365 16.5936Z" fill="#212121"/>
</svg>
