<svg width="22" height="14" viewBox="0 0 22 14" fill="none" xmlns="http://www.w3.org/2000/svg">
<path fill-rule="evenodd" clip-rule="evenodd" d="M12.1689 13.5297C12.2785 13.4874 12.3982 13.4223 12.4833 13.3234C12.667 13.1106 12.6603 12.7095 12.6603 12.7095C12.6603 12.7095 12.6362 10.8363 13.4426 10.5597C13.9224 10.3955 14.4854 11.0912 15.0941 11.8442C15.4932 12.3375 15.9119 12.8555 16.3403 13.1724C17.1582 13.778 17.779 13.6456 17.779 13.6456L20.6729 13.602C20.6729 13.602 22.1855 13.5016 21.4686 12.2181L21.4489 12.1808C21.346 11.9785 20.9172 11.1355 19.3175 9.53343C18.5545 8.76964 18.1549 8.37903 18.1111 7.94918C18.0641 7.48701 18.4275 6.97926 19.1911 5.91401C19.406 5.61381 19.6527 5.26936 19.931 4.86926C21.2619 2.95598 21.7936 1.78784 21.6273 1.28858C21.4696 0.81066 20.4907 0.93764 20.4907 0.93764L17.2332 0.959387C17.2332 0.959387 16.9918 0.92381 16.813 1.03929C16.638 1.15244 16.5245 1.41656 16.5245 1.41656C16.5245 1.41656 16.3879 1.80858 16.162 2.36091C15.949 2.88166 15.6557 3.54489 15.322 4.15596C13.8714 6.81203 13.292 6.95276 13.0545 6.78829C12.8892 6.67281 12.7858 6.48784 12.7218 6.26304C12.6069 5.85894 12.6204 5.32694 12.6329 4.84018C12.6367 4.69404 12.64 4.55206 12.64 4.41883C12.64 3.82601 12.6593 3.31301 12.6761 2.87067C12.7314 1.39199 12.7569 0.706761 11.9357 0.492962C11.5818 0.40031 11.3212 0.339987 10.4154 0.329489C9.25282 0.316991 8.26956 0.334238 7.71223 0.627941C7.34154 0.82341 7.0555 1.25984 7.23006 1.28508C7.44544 1.31591 7.93245 1.42681 8.19116 1.80609C8.52485 2.29659 8.51327 3.39591 8.51327 3.39591C8.51327 3.39591 8.70516 6.42701 8.06518 6.80303C7.62666 7.06141 7.02476 6.53441 5.73088 4.12396C5.06882 2.88966 4.56873 1.52496 4.56873 1.52496C4.56873 1.52496 4.47208 1.27009 4.29953 1.13311C4.09081 0.967385 3.79944 0.915811 3.79944 0.915811L0.70452 0.93764C0.70452 0.93764 0.551628 0.942141 0.38907 0.987217C0.267923 1.02071 0.141443 1.07654 0.0688713 1.16969C-0.0826044 1.36274 0.0568736 1.76401 0.0568736 1.76401C0.0568736 1.76401 2.48015 7.87953 5.22455 10.962C7.74114 13.7873 10.5976 13.602 10.5976 13.602H11.8924C11.8924 13.602 12.0213 13.5868 12.1689 13.5297Z" fill="#212121"/>
</svg>
